<svg width="390" height="844" viewBox="0 0 390 844" xmlns="http://www.w3.org/2000/svg" font-family="'Segoe UI', system-ui, sans-serif">
  <!-- Background -->
  <rect width="390" height="844" fill="#0d0d1a"/>

  <!-- Status bar -->
  <rect width="390" height="44" fill="#0d0d1a"/>
  <text x="20" y="28" fill="#ffffff" font-size="13" font-weight="600">9:41</text>
  <text x="340" y="28" fill="#ffffff" font-size="11">●●● WiFi 🔋</text>

  <!-- Top bar -->
  <rect y="44" width="390" height="52" fill="rgba(13,13,26,0.95)"/>
  <rect y="96" width="390" height="1" fill="rgba(255,255,255,0.06)"/>
  <text x="20" y="76" fill="#00d26a" font-size="18" font-weight="800">⚽ Bet &amp; Brag</text>
  <rect x="270" y="56" width="100" height="28" rx="14" fill="rgba(0,210,106,0.12)" stroke="rgba(0,210,106,0.3)" stroke-width="1"/>
  <text x="283" y="75" fill="#00d26a" font-size="13" font-weight="700">💎 100 Gems</text>

  <!-- Page Header -->
  <rect y="97" width="390" height="64" fill="#0d0d1a"/>
  <text x="20" y="124" fill="#ffffff" font-size="20" font-weight="900">⚽ WM-Spieltag</text>
  <text x="20" y="145" fill="#8888aa" font-size="12">FIFA WM 2026 · Gruppenphase</text>

  <!-- Filter tabs -->
  <rect y="161" width="390" height="44" fill="#0d0d1a"/>
  <!-- Active tab -->
  <rect x="10" y="167" width="88" height="28" rx="14" fill="rgba(0,210,106,0.12)" stroke="rgba(0,210,106,0.3)" stroke-width="1"/>
  <text x="24" y="186" fill="#00d26a" font-size="11" font-weight="700">Gruppenphase</text>
  <!-- Other tabs -->
  <rect x="104" y="167" width="76" height="28" rx="14" fill="rgba(255,255,255,0.05)"/>
  <text x="116" y="186" fill="#8888aa" font-size="11" font-weight="600">Meine Tipps</text>
  <rect x="186" y="167" width="42" height="28" rx="14" fill="rgba(255,255,255,0.05)"/>
  <text x="198" y="186" fill="#8888aa" font-size="11" font-weight="600">Live</text>
  <rect x="234" y="167" width="68" height="28" rx="14" fill="rgba(255,255,255,0.05)"/>
  <text x="244" y="186" fill="#8888aa" font-size="11" font-weight="600">K.o.-Phase</text>

  <!-- Group A label -->
  <text x="16" y="222" fill="#555577" font-size="10" font-weight="800" letter-spacing="2">GRUPPE A</text>
  <line x1="90" y1="217" x2="374" y2="217" stroke="rgba(255,255,255,0.05)" stroke-width="1"/>

  <!-- Match 1 - open -->
  <rect x="12" y="228" width="366" height="72" rx="14" fill="#141428" stroke="rgba(255,255,255,0.07)" stroke-width="1"/>
  <!-- Date/venue -->
  <text x="28" y="244" fill="#555577" font-size="10">11. Jun · 21:00 · Estadio Azteca</text>
  <!-- Status badge -->
  <rect x="306" y="234" width="58" height="18" rx="9" fill="rgba(0,210,106,0.12)" stroke="rgba(0,210,106,0.25)" stroke-width="1"/>
  <text x="316" y="247" fill="#00d26a" font-size="9" font-weight="800">OFFEN</text>
  <!-- Teams -->
  <text x="28" y="268" fill="#ffffff" font-size="22">🇲🇽</text>
  <text x="58" y="270" fill="#ffffff" font-size="15" font-weight="800">Mexiko</text>
  <text x="185" y="270" fill="#555577" font-size="14" font-weight="900">vs</text>
  <text x="220" y="268" fill="#ffffff" font-size="22">🇨🇿</text>
  <text x="250" y="270" fill="#ffffff" font-size="15" font-weight="800">Tschechien</text>
  <!-- Tipp button -->
  <rect x="28" y="278" width="80" height="16" rx="8" fill="rgba(0,210,106,0.15)" stroke="rgba(0,210,106,0.3)" stroke-width="1"/>
  <text x="42" y="290" fill="#00d26a" font-size="9" font-weight="700">🎯 Tippen</text>

  <!-- Match 2 - tipped -->
  <rect x="12" y="308" width="366" height="72" rx="14" fill="#141428" stroke="rgba(0,210,106,0.2)" stroke-width="1"/>
  <text x="28" y="324" fill="#555577" font-size="10">12. Jun · 18:00 · AT&amp;T Stadium</text>
  <rect x="290" y="314" width="78" height="18" rx="9" fill="rgba(0,150,100,0.15)" stroke="rgba(0,150,100,0.3)" stroke-width="1"/>
  <text x="298" y="327" fill="#00d26a" font-size="9" font-weight="800">✓ GETIPPT</text>
  <text x="28" y="350" fill="#ffffff" font-size="22">🇰🇷</text>
  <text x="58" y="352" fill="#ffffff" font-size="15" font-weight="800">Südkorea</text>
  <text x="185" y="352" fill="#555577" font-size="14" font-weight="900">vs</text>
  <text x="220" y="350" fill="#ffffff" font-size="22">🇿🇦</text>
  <text x="250" y="352" fill="#ffffff" font-size="15" font-weight="800">Südafrika</text>
  <!-- Mein Tipp -->
  <text x="28" y="370" fill="#8888aa" font-size="10">Dein Tipp: </text>
  <text x="80" y="370" fill="#00d26a" font-size="10" font-weight="800">2 : 0</text>
  <rect x="200" y="358" width="80" height="16" rx="8" fill="rgba(255,255,255,0.06)"/>
  <text x="214" y="370" fill="#8888aa" font-size="9" font-weight="600">✏️ Bearbeiten</text>

  <!-- Match 3 - finished -->
  <rect x="12" y="388" width="366" height="72" rx="14" fill="#141428" stroke="rgba(255,255,255,0.04)" stroke-width="1"/>
  <text x="28" y="404" fill="#555577" font-size="10">17. Jun · 18:00 · Estadio Akron</text>
  <rect x="296" y="394" width="72" height="18" rx="9" fill="rgba(255,255,255,0.06)"/>
  <text x="304" y="407" fill="#8888aa" font-size="9" font-weight="800">BEENDET</text>
  <text x="28" y="432" fill="#ffffff" font-size="22">🇲🇽</text>
  <text x="58" y="434" fill="#ffffff" font-size="15" font-weight="800">Mexiko</text>
  <!-- Result -->
  <text x="155" y="432" fill="#00d26a" font-size="18" font-weight="900">2 : 1</text>
  <text x="220" y="432" fill="#ffffff" font-size="22">🇰🇷</text>
  <text x="250" y="434" fill="#ffffff" font-size="15" font-weight="800">Südkorea</text>
  <!-- Win label -->
  <rect x="28" y="442" width="90" height="16" rx="8" fill="rgba(0,210,106,0.12)"/>
  <text x="36" y="454" fill="#00d26a" font-size="9" font-weight="700">🎯 Volltreffer +30</text>

  <!-- Group B label -->
  <text x="16" y="480" fill="#555577" font-size="10" font-weight="800" letter-spacing="2">GRUPPE B</text>
  <line x1="90" y1="475" x2="374" y2="475" stroke="rgba(255,255,255,0.05)" stroke-width="1"/>

  <!-- Match B1 -->
  <rect x="12" y="486" width="366" height="68" rx="14" fill="#141428" stroke="rgba(255,255,255,0.07)" stroke-width="1"/>
  <text x="28" y="502" fill="#555577" font-size="10">12. Jun · 21:00 · BC Place</text>
  <rect x="306" y="492" width="58" height="18" rx="9" fill="rgba(0,210,106,0.12)" stroke="rgba(0,210,106,0.25)" stroke-width="1"/>
  <text x="316" y="505" fill="#00d26a" font-size="9" font-weight="800">OFFEN</text>
  <text x="28" y="528" fill="#ffffff" font-size="22">🇨🇦</text>
  <text x="58" y="530" fill="#ffffff" font-size="15" font-weight="800">Kanada</text>
  <text x="185" y="530" fill="#555577" font-size="14" font-weight="900">vs</text>
  <text x="220" y="528" fill="#ffffff" font-size="22">🇧🇦</text>
  <text x="250" y="530" fill="#ffffff" font-size="15" font-weight="800">Bosnien</text>
  <rect x="28" y="538" width="80" height="16" rx="8" fill="rgba(0,210,106,0.15)" stroke="rgba(0,210,106,0.3)" stroke-width="1"/>
  <text x="42" y="550" fill="#00d26a" font-size="9" font-weight="700">🎯 Tippen</text>

  <!-- Match B2 -->
  <rect x="12" y="562" width="366" height="68" rx="14" fill="#141428" stroke="rgba(255,255,255,0.07)" stroke-width="1"/>
  <text x="28" y="578" fill="#555577" font-size="10">13. Jun · 18:00 · Arrowhead Stadium</text>
  <rect x="306" y="568" width="58" height="18" rx="9" fill="rgba(0,210,106,0.12)" stroke="rgba(0,210,106,0.25)" stroke-width="1"/>
  <text x="316" y="581" fill="#00d26a" font-size="9" font-weight="800">OFFEN</text>
  <text x="28" y="604" fill="#ffffff" font-size="22">🇶🇦</text>
  <text x="58" y="606" fill="#ffffff" font-size="15" font-weight="800">Katar</text>
  <text x="185" y="606" fill="#555577" font-size="14" font-weight="900">vs</text>
  <text x="220" y="604" fill="#ffffff" font-size="22">🇨🇭</text>
  <text x="250" y="606" fill="#ffffff" font-size="15" font-weight="800">Schweiz</text>
  <rect x="28" y="614" width="80" height="16" rx="8" fill="rgba(0,210,106,0.15)" stroke="rgba(0,210,106,0.3)" stroke-width="1"/>
  <text x="42" y="626" fill="#00d26a" font-size="9" font-weight="700">🎯 Tippen</text>

  <!-- Scroll hint -->
  <text x="160" y="652" fill="#444466" font-size="10" font-weight="600">··· weitere Spiele ···</text>

  <!-- BOTTOM NAV -->
  <rect y="756" width="390" height="88" fill="rgba(20,20,40,0.97)" stroke="rgba(255,255,255,0.08)" stroke-width="1"/>
  <text x="30" y="786" fill="#666688" font-size="22">🏠</text>
  <text x="22" y="804" fill="#666688" font-size="9" font-weight="600">HOME</text>
  <!-- Active: Spieltag -->
  <rect x="76" y="762" width="68" height="52" rx="12" fill="rgba(0,210,106,0.1)"/>
  <text x="97" y="786" fill="#00d26a" font-size="22">⚽</text>
  <text x="83" y="804" fill="#00d26a" font-size="9" font-weight="700">SPIELTAG</text>
  <text x="185" y="786" fill="#666688" font-size="22">🏆</text>
  <text x="172" y="804" fill="#666688" font-size="9" font-weight="600">BRACKET</text>
  <text x="263" y="786" fill="#666688" font-size="22">👑</text>
  <text x="248" y="804" fill="#666688" font-size="9" font-weight="600">RANGLISTE</text>
  <text x="348" y="786" fill="#666688" font-size="22">👤</text>
  <text x="338" y="804" fill="#666688" font-size="9" font-weight="600">PROFIL</text>
</svg>
