<svg width="390" height="844" viewBox="0 0 390 844" xmlns="http://www.w3.org/2000/svg" font-family="'Segoe UI', system-ui, sans-serif">
  <!-- Background -->
  <rect width="390" height="844" fill="#0d0d1a"/>

  <!-- Status bar -->
  <rect width="390" height="44" fill="#0d0d1a"/>
  <text x="20" y="28" fill="#ffffff" font-size="13" font-weight="600">9:41</text>
  <text x="340" y="28" fill="#ffffff" font-size="11">●●● WiFi 🔋</text>

  <!-- Top bar -->
  <rect y="44" width="390" height="52" fill="rgba(13,13,26,0.95)"/>
  <rect y="96" width="390" height="1" fill="rgba(255,255,255,0.06)"/>
  <text x="20" y="76" fill="#00d26a" font-size="18" font-weight="800">⚽ Bet &amp; Brag</text>
  <rect x="270" y="56" width="100" height="28" rx="14" fill="rgba(0,210,106,0.12)" stroke="rgba(0,210,106,0.3)" stroke-width="1"/>
  <text x="283" y="75" fill="#00d26a" font-size="13" font-weight="700">💎 100 Gems</text>

  <!-- Page Header -->
  <rect y="97" width="390" height="72" fill="linear-gradient(135deg,#0d0d1a,#1a1020)"/>
  <rect y="97" width="390" height="72" fill="#0d0d1a"/>
  <rect y="169" width="390" height="1" fill="rgba(255,255,255,0.06)"/>
  <text x="20" y="125" fill="#ffffff" font-size="20" font-weight="900">👑 Bragging Rights</text>
  <text x="20" y="145" fill="#8888aa" font-size="12">Leaderboard · WM 2026</text>
  <text x="354" y="130" fill="rgba(255,255,255,0.6)" font-size="28">🏆</text>

  <!-- My stat banner -->
  <rect x="16" y="178" width="358" height="58" rx="16" fill="rgba(0,210,106,0.07)" stroke="rgba(0,210,106,0.25)" stroke-width="1"/>
  <text x="36" y="200" fill="#00d26a" font-size="26" font-weight="900">#1</text>
  <text x="80" y="198" fill="#ffffff" font-size="14" font-weight="800">🧔 Luis (Du)</text>
  <text x="80" y="214" fill="#00d26a" font-size="12" font-weight="700">💎 100 Football Gems</text>
  <text x="348" y="210" fill="#555577" font-size="18">➖</text>

  <!-- Legend -->
  <text x="20" y="256" fill="#555577" font-size="10">🟢 ↑ Aufsteiger</text>
  <text x="110" y="256" fill="#555577" font-size="10">🔴 ↓ Absteiger</text>
  <text x="195" y="256" fill="#555577" font-size="10">➖ Gleich</text>
  <text x="255" y="256" fill="#555577" font-size="10">⚔️ H2H</text>

  <!-- Zone: Final -->
  <text x="20" y="278" fill="#ffd700" font-size="10" font-weight="800" letter-spacing="2">🥇 FINAL-ZONE (TOP 3)</text>
  <line x1="190" y1="273" x2="372" y2="273" stroke="rgba(255,215,0,0.2)" stroke-width="1"/>

  <!-- Rank 1 -->
  <rect x="12" y="284" width="366" height="54" rx="14" fill="rgba(255,215,0,0.05)" stroke="rgba(255,215,0,0.1)" stroke-width="1"/>
  <rect x="12" y="284" width="366" height="54" rx="14" stroke="rgba(0,210,106,0.35)" stroke-width="1" fill="none"/>
  <text x="28" y="317" fill="#ffd700" font-size="20">🥇</text>
  <text x="58" y="308" fill="#ffffff" font-size="14" font-weight="700">🧔 Luis 👈</text>
  <text x="58" y="326" fill="#666688" font-size="11">0 Tipps · 0 gewonnen</text>
  <text x="312" y="311" fill="#00d26a" font-size="14" font-weight="800">💎 100</text>
  <text x="312" y="327" fill="#666688" font-size="10">Gems</text>
  <text x="356" y="317" fill="#555577" font-size="14">➖</text>

  <!-- Rank 2 -->
  <rect x="12" y="344" width="366" height="54" rx="14" fill="rgba(255,255,255,0.03)" stroke="rgba(255,255,255,0.05)" stroke-width="1"/>
  <text x="28" y="377" fill="#c0c0c0" font-size="20">🥈</text>
  <text x="58" y="368" fill="#ffffff" font-size="14" font-weight="700">👨 Pablo</text>
  <text x="58" y="386" fill="#666688" font-size="11">0 Tipps · 0 gewonnen</text>
  <text x="312" y="371" fill="#00d26a" font-size="14" font-weight="800">💎 100</text>
  <text x="312" y="387" fill="#666688" font-size="10">Gems</text>
  <text x="356" y="377" fill="#555577" font-size="14">➖</text>
  <rect x="344" y="357" width="28" height="22" rx="6" fill="rgba(255,255,255,0.06)" stroke="rgba(255,255,255,0.08)" stroke-width="1"/>
  <text x="350" y="372" fill="#8888aa" font-size="10">⚔️</text>

  <!-- Rank 3 -->
  <rect x="12" y="404" width="366" height="54" rx="14" fill="rgba(255,215,0,0.05)" stroke="rgba(255,215,0,0.1)" stroke-width="1"/>
  <text x="28" y="437" fill="#cd7f32" font-size="20">🥉</text>
  <text x="58" y="428" fill="#ffffff" font-size="14" font-weight="700">🧑 Levin</text>
  <text x="58" y="446" fill="#666688" font-size="11">0 Tipps · 0 gewonnen</text>
  <text x="312" y="431" fill="#00d26a" font-size="14" font-weight="800">💎 100</text>
  <text x="312" y="447" fill="#666688" font-size="10">Gems</text>
  <rect x="344" y="417" width="28" height="22" rx="6" fill="rgba(255,255,255,0.06)" stroke="rgba(255,255,255,0.08)" stroke-width="1"/>
  <text x="350" y="432" fill="#8888aa" font-size="10">⚔️</text>

  <!-- Zone: Mittelfeld -->
  <text x="20" y="478" fill="#8888aa" font-size="10" font-weight="800" letter-spacing="2">📊 MITTELFELD</text>
  <line x1="138" y1="473" x2="372" y2="473" stroke="rgba(136,136,170,0.2)" stroke-width="1"/>

  <!-- Ranks 4-7 compact -->
  <rect x="12" y="484" width="366" height="44" rx="12" fill="rgba(255,255,255,0.03)" stroke="rgba(255,255,255,0.05)" stroke-width="1"/>
  <text x="28" y="511" fill="#8888aa" font-size="13" font-weight="800">#4</text>
  <text x="58" y="504" fill="#ffffff" font-size="13" font-weight="700">👩 Jasmin</text>
  <text x="58" y="518" fill="#666688" font-size="10">0 Tipps</text>
  <text x="318" y="511" fill="#00d26a" font-size="13" font-weight="800">100</text>
  <rect x="344" y="493" width="28" height="22" rx="6" fill="rgba(255,255,255,0.06)" stroke="rgba(255,255,255,0.08)" stroke-width="1"/>
  <text x="350" y="508" fill="#8888aa" font-size="10">⚔️</text>

  <rect x="12" y="534" width="366" height="44" rx="12" fill="rgba(255,255,255,0.03)" stroke="rgba(255,255,255,0.05)" stroke-width="1"/>
  <text x="28" y="561" fill="#8888aa" font-size="13" font-weight="800">#5</text>
  <text x="58" y="554" fill="#ffffff" font-size="13" font-weight="700">👱 Vanessa</text>
  <text x="58" y="568" fill="#666688" font-size="10">0 Tipps</text>
  <text x="318" y="561" fill="#00d26a" font-size="13" font-weight="800">100</text>
  <rect x="344" y="543" width="28" height="22" rx="6" fill="rgba(255,255,255,0.06)" stroke="rgba(255,255,255,0.08)" stroke-width="1"/>
  <text x="350" y="558" fill="#8888aa" font-size="10">⚔️</text>

  <rect x="12" y="584" width="366" height="44" rx="12" fill="rgba(255,255,255,0.03)" stroke="rgba(255,255,255,0.05)" stroke-width="1"/>
  <text x="28" y="611" fill="#8888aa" font-size="13" font-weight="800">#6</text>
  <text x="58" y="604" fill="#ffffff" font-size="13" font-weight="700">🧔 Lorenzo</text>
  <text x="58" y="618" fill="#666688" font-size="10">0 Tipps</text>
  <text x="318" y="611" fill="#00d26a" font-size="13" font-weight="800">100</text>
  <rect x="344" y="593" width="28" height="22" rx="6" fill="rgba(255,255,255,0.06)" stroke="rgba(255,255,255,0.08)" stroke-width="1"/>
  <text x="350" y="608" fill="#8888aa" font-size="10">⚔️</text>

  <!-- Zone: Gurken -->
  <text x="20" y="650" fill="#ff4444" font-size="10" font-weight="800" letter-spacing="2">💀 GURKEN-ZONE</text>
  <line x1="160" y1="645" x2="372" y2="645" stroke="rgba(255,68,68,0.2)" stroke-width="1"/>

  <rect x="12" y="656" width="366" height="44" rx="12" fill="rgba(255,40,40,0.04)" stroke="rgba(255,40,40,0.1)" stroke-width="1"/>
  <text x="28" y="683" fill="#8888aa" font-size="13" font-weight="800">#8</text>
  <text x="58" y="676" fill="#ffffff" font-size="13" font-weight="700">👩 Sanja</text>
  <text x="58" y="690" fill="#666688" font-size="10">0 Tipps</text>
  <text x="318" y="683" fill="#00d26a" font-size="13" font-weight="800">100</text>

  <rect x="12" y="706" width="366" height="44" rx="12" fill="rgba(255,40,40,0.04)" stroke="rgba(255,40,40,0.1)" stroke-width="1"/>
  <text x="28" y="733" fill="#8888aa" font-size="13" font-weight="800">#9</text>
  <text x="58" y="726" fill="#ffffff" font-size="13" font-weight="700">🧑 Fabio</text>
  <text x="58" y="740" fill="#666688" font-size="10">0 Tipps</text>
  <text x="318" y="733" fill="#00d26a" font-size="13" font-weight="800">100</text>

  <!-- BOTTOM NAV -->
  <rect y="756" width="390" height="88" fill="rgba(20,20,40,0.97)" stroke="rgba(255,255,255,0.08)" stroke-width="1"/>
  <text x="30" y="786" fill="#666688" font-size="22">🏠</text>
  <text x="22" y="804" fill="#666688" font-size="9" font-weight="600">HOME</text>
  <text x="102" y="786" fill="#666688" font-size="22">⚽</text>
  <text x="90" y="804" fill="#666688" font-size="9" font-weight="600">SPIELTAG</text>
  <text x="185" y="786" fill="#666688" font-size="22">🏆</text>
  <text x="172" y="804" fill="#666688" font-size="9" font-weight="600">BRACKET</text>
  <!-- Active: Rangliste -->
  <rect x="228" y="762" width="74" height="52" rx="12" fill="rgba(0,210,106,0.1)"/>
  <text x="248" y="786" fill="#00d26a" font-size="22">👑</text>
  <text x="233" y="804" fill="#00d26a" font-size="9" font-weight="700">RANGLISTE</text>
  <text x="348" y="786" fill="#666688" font-size="22">👤</text>
  <text x="338" y="804" fill="#666688" font-size="9" font-weight="600">PROFIL</text>
</svg>
